# xmcd CD database file
#
# Track frame offsets:
#	150
#	12550
#	32209
#	55695
#	74326
#	95128
#	120057
#	154536
#	174502
#	191635
#	210792
#	231991
#	256499
#
# Disc length: 4373 seconds
#
# Revision: 0
# Processed by: cddbd v1.5.1PL2 Copyright (c) Steve Scherf et al.
# Submitted via: CDex 1.51
#
DISCID=a811130d
DTITLE=Francesca De Fazi' N' Band - Blues Dues
DYEAR=1900
DGENRE=Blues
TTITLE0=Teaching While I Learn
TTITLE1=Like A Virgin
TTITLE2=Son Of A Preacherman
TTITLE3=Flowers On Stage
TTITLE4=Move Over
TTITLE5=Everywhere I Go
TTITLE6=S.Francisco 68
TTITLE7=Manic Depression
TTITLE8=Rollin' N' Tumbling The Big Road
TTITLE9=Ache In My Heart
TTITLE10=Material Girl
TTITLE11=A Whiter Shade of Pale
TTITLE12=Down On Me
EXTD=
EXTT0=
EXTT1=
EXTT2=
EXTT3=
EXTT4=
EXTT5=
EXTT6=
EXTT7=
EXTT8=
EXTT9=
EXTT10=
EXTT11=
EXTT12=
PLAYORDER=
